<?xml version="1.0" encoding="UTF-8"?>
<svg version="1.1" xmlns="http://www.w3.org/2000/svg" width="1254" height="1254">
<path d="M0 0 C413.82 0 827.64 0 1254 0 C1254 413.82 1254 827.64 1254 1254 C840.18 1254 426.36 1254 0 1254 C0 840.18 0 426.36 0 0 Z " fill="#000000" transform="translate(0,0)"/>
<path d="M0 0 C13.2 0 26.4 0 40 0 C44.41666667 8.83333333 44.41666667 8.83333333 45.875 13.25 C47.29814535 17.30177853 48.96888542 21.05860651 50.9375 24.875 C53.62752521 30.09283785 55.73235502 35.39348488 57.77734375 40.890625 C59.25963794 44.6602933 61.02925076 48.21865442 62.8828125 51.81640625 C64.87769198 55.71548887 66.52713603 59.72256152 68.046875 63.828125 C70.73636057 71.05830049 73.81168137 77.87143867 77.3515625 84.7109375 C79.04518786 88.09016155 80.52517054 91.52050958 82 95 C83.32716605 97.78891795 84.66239058 100.57329978 86.01171875 103.3515625 C87.03900143 106.10451767 87.19438358 108.08949988 87 111 C87.66 111 88.32 111 89 111 C89 74.37 89 37.74 89 0 C101.54 0 114.08 0 127 0 C127 66 127 132 127 200 C114.46 200 101.92 200 89 200 C85.96604482 195.44906724 84.20967378 192.39139833 82.4375 187.4375 C80.95198565 183.30241251 79.30364406 179.73479078 77 176 C76.28153336 174.10586067 75.56572852 172.21052939 74.87890625 170.3046875 C72.59462572 164.31479635 69.79855469 158.51399171 66.875 152.8125 C65.5908796 150.29030337 64.5146221 147.78987805 63.5625 145.125 C62.42337044 141.95037665 61.03772227 139.00200109 59.5 136 C57.63682292 132.3626334 56.10664143 128.75532479 54.73828125 124.91015625 C53.98492967 122.96100852 53.09456366 121.16278283 52.125 119.3125 C49.82918901 114.86927645 48.14736899 110.23491813 46.44140625 105.5390625 C44.55625598 100.91048216 42.23506365 96.47012729 40 92 C39.67 127.97 39.34 163.94 39 201 C26.13 201 13.26 201 0 201 C0 134.67 0 68.34 0 0 Z " fill="#FBFBFB" transform="translate(873,527)"/>
<path d="M0 0 C28.38 0 56.76 0 86 0 C86 113.52 86 227.04 86 344 C57.62 344 29.24 344 0 344 C0 331.13 0 318.26 0 305 C14.52 305 29.04 305 44 305 C44 217.22 44 129.44 44 39 C29.48 39 14.96 39 0 39 C0 26.13 0 13.26 0 0 Z " fill="#F8F8F8" transform="translate(1026,455)"/>
<path d="M0 0 C28.38 0 56.76 0 86 0 C86 12.87 86 25.74 86 39 C71.48 39 56.96 39 42 39 C42 126.45 42 213.9 42 304 C56.52 304 71.04 304 86 304 C86 316.87 86 329.74 86 343 C57.62 343 29.24 343 0 343 C0 229.81 0 116.62 0 0 Z " fill="#F8F8F8" transform="translate(144,456)"/>
<path d="M0 0 C12.87 0 25.74 0 39 0 C39.33 24.75 39.66 49.5 40 75 C43.3 70.05 46.6 65.1 50 60 C58.74023438 46.88964844 58.74023438 46.88964844 67.48046875 33.77929688 C68.07069824 32.89123352 68.66092773 32.00317017 69.26904297 31.0881958 C70.45553691 29.3139299 71.65212393 27.54637044 72.85888672 25.78582764 C75.76116839 21.52656388 78.41728803 17.31153543 80.73828125 12.70605469 C86.80840379 1.1625964 86.80840379 1.1625964 92.43768311 -0.88796997 C99.37608363 -2.20257243 106.25481529 -1.64742103 113.25 -1.125 C115.36293854 -1.03457051 117.47625064 -0.95246518 119.58984375 -0.87890625 C124.73588675 -0.68181389 129.86378362 -0.37232795 135 0 C133.76336717 3.34428215 132.38558426 6.12798272 130.3046875 9.01953125 C129.48991943 10.1643396 129.48991943 10.1643396 128.65869141 11.33227539 C128.07007324 12.15074951 127.48145508 12.96922363 126.875 13.8125 C120.63280566 22.59832701 114.60824756 31.51050769 108.68310547 40.51293945 C104.90662507 46.22731216 100.99502818 51.80737944 96.94140625 57.32836914 C93.93214977 61.46950265 91.05917125 65.70032677 88.1875 69.9375 C87.0776575 71.57218152 85.96700928 73.20631637 84.85546875 74.83984375 C84.13846802 75.89739868 84.13846802 75.89739868 83.40698242 76.97631836 C82 79 82 79 80.2590332 80.88500977 C78.74873791 82.99070716 78.74873791 82.99070716 79.08666992 85.796875 C80.15832103 89.55524511 81.75294653 92.83742612 83.61328125 96.25 C83.97862976 96.93611359 84.34397827 97.62222717 84.72039795 98.32913208 C85.90957673 100.55725017 87.11082661 102.77859955 88.3125 105 C89.14382232 106.55155935 89.97446532 108.10348286 90.80444336 109.65576172 C95.63781591 118.68086947 100.52234336 127.67861451 105.45043945 136.65234375 C110.25340041 145.41276066 114.92411833 154.2425944 119.59692383 163.07287598 C124.83834121 172.97679214 130.14142588 182.84101207 135.59765625 192.62890625 C136.05140625 193.45003906 136.50515625 194.27117187 136.97265625 195.1171875 C137.36718994 195.82472168 137.76172363 196.53225586 138.16821289 197.26123047 C139 199 139 199 139 201 C123.49 201 107.98 201 92 201 C90.68 197.7 89.36 194.4 88 191 C87.19722605 189.31323647 86.36698585 187.63858214 85.484375 185.9921875 C85.04198486 185.15896973 84.59959473 184.32575195 84.14379883 183.46728516 C83.68384521 182.61183105 83.2238916 181.75637695 82.75 180.875 C81.76830202 179.02669403 80.78784362 177.17772917 79.80859375 175.328125 C79.33019043 174.42513672 78.85178711 173.52214844 78.35888672 172.59179688 C76.45604507 168.96251787 74.62707261 165.29900599 72.8125 161.625 C69.98615187 155.91360045 67.03771482 150.28108184 64.01464844 144.67163086 C60.18131161 137.5291499 56.59254503 130.26572075 53 123 C52.67 122.34 52.34 121.68 52 121 C50.93563167 122.35269866 49.87362059 123.70725216 48.8125 125.0625 C48.22082031 125.81660156 47.62914062 126.57070313 47.01953125 127.34765625 C46.35308594 128.22292969 45.68664062 129.09820313 45 130 C43.72189453 131.3602832 43.72189453 131.3602832 42.41796875 132.74804688 C38.46332938 138.34425179 39.27153682 145.10791284 39.29296875 151.68359375 C39.2798386 153.10850627 39.26453034 154.53340023 39.24714661 155.95826721 C39.20743631 159.68848568 39.19711535 163.41821573 39.19311523 167.14862061 C39.18210865 171.63511874 39.13424453 176.12135982 39.09262848 180.60765839 C39.03366319 187.40532352 39.02123884 194.20164124 39 201 C26.13 201 13.26 201 0 201 C0 134.67 0 68.34 0 0 Z " fill="#F9F9F9" transform="translate(412,527)"/>
<path d="M0 0 C12.36281062 10.04345372 20.10322469 23.36444227 22.1875 39.25 C22.54204917 44.42641786 22.5 49.62395426 22.5 54.8125 C9.96 54.8125 -2.58 54.8125 -15.5 54.8125 C-16.49 47.8825 -16.49 47.8825 -17.5 40.8125 C-20.09925508 34.03587069 -23.08750186 30.03439623 -29.703125 26.703125 C-36.57420865 24.5151263 -46.67901565 24.43188443 -53.25 27.5 C-59.23705722 31.76002148 -62.13350728 36.96456246 -64.5 43.8125 C-65.01550838 47.0226113 -65.03906161 50.14988823 -65.00170898 53.39624023 C-65.00711197 54.30808075 -65.01251495 55.21992126 -65.01808167 56.15939331 C-65.03049786 59.14696613 -65.01412396 62.13356167 -64.99609375 65.12109375 C-64.99624892 67.2141983 -64.99774082 69.30730315 -65.00050354 71.40040588 C-65.00188441 75.77723974 -64.98938271 80.15374467 -64.96655273 84.53051758 C-64.93818703 90.11988386 -64.94090502 95.70870338 -64.95364285 101.29811001 C-64.96062337 105.61774808 -64.95278336 109.93726148 -64.94038582 114.25688362 C-64.93589314 116.31680891 -64.93551527 118.37674769 -64.93945122 120.43667412 C-64.94238634 123.32451324 -64.92574656 126.21161917 -64.90405273 129.09936523 C-64.91080521 130.35670723 -64.91080521 130.35670723 -64.91769409 131.63945007 C-64.81286461 140.10745509 -62.91050512 148.12893485 -57.5 154.8125 C-52.12405944 159.66395855 -47.78602871 160.04016043 -40.75 160.125 C-39.96367188 160.15400391 -39.17734375 160.18300781 -38.3671875 160.21289062 C-32.52911967 160.27592624 -29.37857655 158.98357476 -24.5 155.8125 C-23.84 155.8125 -23.18 155.8125 -22.5 155.8125 C-21.82730704 154.48219688 -21.16208086 153.1481164 -20.5 151.8125 C-20.15839844 151.13316406 -19.81679688 150.45382812 -19.46484375 149.75390625 C-15.300222 140.11035246 -15.76391063 130.17099209 -15.5 119.8125 C-23.42 119.8125 -31.34 119.8125 -39.5 119.8125 C-39.5 108.5925 -39.5 97.3725 -39.5 85.8125 C-19.04 85.8125 1.42 85.8125 22.5 85.8125 C22.561875 94.8875 22.62375 103.9625 22.6875 113.3125 C22.72846802 117.55770508 22.72846802 117.55770508 22.77026367 121.88867188 C22.88856395 142.80243926 22.45991785 163.54244677 7.5 179.8125 C6.87738281 180.50085938 6.25476563 181.18921875 5.61328125 181.8984375 C-4.75168762 192.20417797 -20.13314223 197.05439735 -34.50390625 197.0402832 C-35.43074219 197.02698975 -36.35757813 197.01369629 -37.3125 197 C-38.28445313 196.9899292 -39.25640625 196.9798584 -40.2578125 196.96948242 C-43.00573319 196.9320066 -45.75255919 196.87529257 -48.5 196.8125 C-49.68980469 196.79445313 -50.87960937 196.77640625 -52.10546875 196.7578125 C-66.17945149 196.11204271 -79.20218894 189.95447042 -88.875 179.7890625 C-91.92215841 176.08266308 -94.2472802 172.03634963 -96.5 167.8125 C-96.8815625 167.11511719 -97.263125 166.41773438 -97.65625 165.69921875 C-104.70483198 151.52195726 -103.97461654 135.37399701 -103.96875 119.9765625 C-103.97586907 117.68459898 -103.98357055 115.39263721 -103.99182129 113.10067749 C-104.00519636 108.31836989 -104.00686608 103.5362272 -104.00097656 98.75390625 C-103.99508295 92.6697702 -104.02569222 86.58643276 -104.06609344 80.50245094 C-104.09212285 75.7750737 -104.09483417 71.04788502 -104.09120178 66.32044601 C-104.09287834 64.07927823 -104.10237703 61.83810031 -104.12034607 59.59700394 C-104.26975901 38.66504573 -101.61430051 20.8953416 -86.828125 5.10546875 C-83.6085806 1.93454163 -80.30448051 -0.75386469 -76.5 -3.1875 C-75.94570313 -3.55359375 -75.39140625 -3.9196875 -74.8203125 -4.296875 C-53.28333009 -16.74046484 -19.73691628 -14.49377608 0 0 Z " fill="#FBFBFB" transform="translate(823.5,534.1875)"/>
<path d="M0 0 C12.87 0 25.74 0 39 0 C39.01458252 4.40069824 39.02916504 8.80139648 39.04418945 13.33544922 C39.09455242 27.88408284 39.16100138 42.43261025 39.23571491 56.98113823 C39.2806166 65.80088987 39.32004416 74.62060163 39.34643555 83.44042969 C39.36946129 91.13078581 39.40291021 98.82101516 39.44870156 106.51127064 C39.47257226 110.58049893 39.49134124 114.64960215 39.49761391 118.71889877 C39.50369277 122.55538235 39.52379267 126.39154616 39.55427551 130.227911 C39.56301112 131.62983791 39.56678768 133.03180669 39.56500816 134.43375969 C39.55641392 144.33585052 39.91159248 152.91528974 46 161 C46 161.66 46 162.32 46 163 C54.22221911 167.45370202 62.26452463 169.93631904 71.52734375 167.2734375 C77.73744276 164.73153341 81.74067071 161.56363462 84.75 155.4375 C86.47729344 150.68744303 87.12811743 146.97449037 87.15821838 141.90032959 C87.1680072 140.64953613 87.17779602 139.39874268 87.18788147 138.11004639 C87.19378525 136.72668495 87.19959572 135.34332312 87.20532227 133.95996094 C87.21490387 132.50125859 87.22491412 131.042559 87.23532104 129.5838623 C87.26234556 125.62556539 87.2833684 121.66725659 87.30332303 117.70891857 C87.32519771 113.57156904 87.35257915 109.43425607 87.37937927 105.29693604 C87.42928611 97.46307729 87.47423239 89.62919823 87.51740164 81.79529977 C87.56679118 72.87636831 87.62170294 63.95747353 87.67708123 55.03857756 C87.79087044 36.69241758 87.89698715 18.34622387 88 0 C100.87 0 113.74 0 127 0 C127.09060552 19.24670347 127.16415856 38.49323188 127.20724869 57.74009514 C127.22779589 66.67853352 127.25576474 75.61682911 127.30175781 84.55517578 C127.34186762 92.35393953 127.36748965 100.15259977 127.37635398 107.95146382 C127.38152827 112.07359659 127.39352189 116.19543347 127.42292023 120.31747055 C127.64956008 153.37715952 127.64956008 153.37715952 123 168 C122.67864075 169.0190744 122.35728149 170.0381488 122.02618408 171.08810425 C118.34119422 181.96004454 109.25458859 191.92626939 99.125 197.25 C80.43638558 205.65987649 55.93876182 207.89533275 36.24291992 201.19189453 C23.4826023 196.34578557 14.04493926 188.68090024 7.6875 176.5625 C7.21739502 175.6974585 7.21739502 175.6974585 6.73779297 174.81494141 C-1.88964505 157.12200733 -0.54198791 137.01233844 -0.40557575 117.88554525 C-0.38027548 113.72964234 -0.37819787 109.57372318 -0.37347412 105.41775513 C-0.36112728 97.57715035 -0.32842019 89.73677329 -0.28807616 81.89626801 C-0.24309749 72.95772168 -0.22130635 64.01916348 -0.20129442 55.08053184 C-0.15967834 36.7201999 -0.08643213 18.36017943 0 0 Z " fill="#F9F9F9" transform="translate(566,527)"/>
<path d="M0 0 C12.87 0 25.74 0 39 0 C39.029729 6.71549194 39.029729 6.71549194 39.06005859 13.56665039 C39.12693462 28.350777 39.20447526 43.13483343 39.28752708 57.9188776 C39.3376255 66.88331971 39.38406874 75.84775279 39.421875 84.81225586 C39.45484043 92.62671014 39.4946968 100.44109386 39.54279006 108.25547022 C39.56800981 112.39220932 39.58980441 116.5289019 39.60334396 120.6656971 C39.61620544 124.56202454 39.63830365 128.45819205 39.66738319 132.35443115 C39.6764271 133.78181157 39.68214174 135.20921772 39.68421364 136.63662529 C39.70142183 146.69420357 39.71695175 155.37732774 47 163 C52.82761237 168.13313007 60.64998462 167.68139922 67.984375 167.3828125 C74.37920918 166.91425092 78.55287911 164.8175884 82.875 160.125 C86.31809932 155.06161864 87.24818463 150.61367898 87.2784729 144.54592896 C87.28963638 143.26714371 87.30079987 141.98835846 87.31230164 140.67082214 C87.31466621 139.26638823 87.31684193 137.861954 87.31884766 136.45751953 C87.32815232 134.96896321 87.33832179 133.48041207 87.34928894 131.99186707 C87.37654242 127.96137016 87.39172452 123.93090813 87.40471697 119.90034342 C87.42036789 115.68424395 87.44715186 111.46821546 87.4727478 107.25216675 C87.51950087 99.27317587 87.55626177 91.29417159 87.58942068 83.3151139 C87.6276666 74.22925125 87.67707029 65.14345995 87.72740483 56.05765748 C87.83067308 37.37181782 87.91847722 18.68594806 88 0 C100.87 0 113.74 0 127 0 C127.06791623 19.28124263 127.12309724 38.56238729 127.15543652 57.84371948 C127.17085629 66.79787501 127.19185142 75.75195054 127.22631836 84.70605469 C127.25637139 92.51725065 127.27561046 100.32838863 127.28226548 108.13964081 C127.28615102 112.26947721 127.29517848 116.3991478 127.31719017 120.52893066 C127.33780771 124.42936801 127.34378379 128.32957391 127.33932304 132.23006058 C127.34013711 133.64885346 127.34595048 135.06765545 127.35761642 136.4864006 C127.51494832 156.63735102 123.76010448 174.64850227 109.6875 189.75 C98.66187952 200.13999713 84.79716931 203.59552157 70 204 C68.76507813 204.0515625 67.53015625 204.103125 66.2578125 204.15625 C48.63459427 204.57501954 30.93385489 202.51717591 17.42382812 190.08911133 C5.81803422 178.6644092 0.52137363 164.12041543 -0.12304783 147.90349007 C-0.12212604 146.7954949 -0.12120424 145.68749973 -0.12025452 144.54592896 C-0.12162918 143.26714371 -0.12300385 141.98835846 -0.12442017 140.67082214 C-0.12088171 139.2663877 -0.11724691 137.8619535 -0.11352539 136.45751953 C-0.11324312 134.96896873 -0.11340203 133.48041779 -0.1139679 131.99186707 C-0.11425431 127.96134691 -0.10838272 123.93085664 -0.10139394 119.90034342 C-0.09513451 115.68428608 -0.09455455 111.46822802 -0.09336853 107.25216675 C-0.09026285 99.27314254 -0.08205975 91.29413207 -0.07201904 83.3151139 C-0.06083421 74.22929704 -0.05534148 65.14347952 -0.05032361 56.05765748 C-0.0398765 37.37176229 -0.0215405 18.68588592 0 0 Z " fill="#FAFAFA" transform="translate(255,527)"/>
<path d="M0 0 C4 5 4 5 4 8 C3.01 8 2.02 8 1 8 C1 41.99 1 75.98 1 111 C0.67 111 0.34 111 0 111 C0 74.37 0 37.74 0 0 Z " fill="#1D1D1D" transform="translate(912,617)"/>
<path d="M0 0 C0.33 0 0.66 0 1 0 C1.1875 2.375 1.1875 2.375 1 5 C0.01 5.66 -0.98 6.32 -2 7 C-2.309375 7.78375 -2.61875 8.5675 -2.9375 9.375 C-4.13726803 12.33913277 -5.64439802 13.87995822 -8 16 C-8.66 15.67 -9.32 15.34 -10 15 C-8.35828571 12.49720508 -6.71189741 9.99772323 -5.0625 7.5 C-4.59392578 6.78457031 -4.12535156 6.06914063 -3.64257812 5.33203125 C-2.45451512 3.53711592 -1.23013479 1.7663474 0 0 Z " fill="#212222" transform="translate(545,530)"/>
<path d="M0 0 C2.31 1.98 4.62 3.96 7 6 C6.34 6.66 5.68 7.32 5 8 C3.02 5.69 1.04 3.38 -1 1 C-0.67 0.67 -0.34 0.34 0 0 Z " fill="#F1F1F2" transform="translate(581,711)"/>
</svg>
